<svg width="89" height="89" viewBox="0 0 89 89" fill="none" xmlns="http://www.w3.org/2000/svg">
<circle cx="44.5" cy="44.5" r="43" stroke="white" stroke-width="3"/>
<path d="M60.0938 65.125H48.5938C48.197 65.125 47.875 64.803 47.875 64.4062V52.9062C47.875 52.5095 48.197 52.1875 48.5938 52.1875H60.0938C60.4905 52.1875 60.8125 52.5095 60.8125 52.9062V64.4062C60.8125 64.803 60.4905 65.125 60.0938 65.125ZM49.3125 63.6875H59.375V53.625H49.3125V63.6875Z" fill="white"/>
<path d="M37.0938 65.125H25.5938C25.197 65.125 24.875 64.803 24.875 64.4062V52.9062C24.875 52.5095 25.197 52.1875 25.5938 52.1875H37.0938C37.4905 52.1875 37.8125 52.5095 37.8125 52.9062V64.4062C37.8125 64.803 37.4905 65.125 37.0938 65.125ZM26.3125 63.6875H36.375V53.625H26.3125V63.6875Z" fill="white"/>
<path d="M60.0938 42.125H48.5938C48.197 42.125 47.875 41.803 47.875 41.4062V29.9062C47.875 29.7151 47.9512 29.5325 48.0849 29.3974L52.3974 25.0849C52.5325 24.9512 52.7151 24.875 52.9062 24.875H64.4062C64.803 24.875 65.125 25.197 65.125 25.5938V37.0938C65.125 37.2849 65.0488 37.4675 64.9151 37.6026L60.6026 41.9151C60.4675 42.0488 60.2849 42.125 60.0938 42.125ZM49.3125 40.6875H59.7962L63.6875 36.7962V26.3125H53.2038L49.3125 30.2038V40.6875Z" fill="white"/>
<path d="M60.0938 42.125H48.5938C48.197 42.125 47.875 41.803 47.875 41.4062V29.9062C47.875 29.5095 48.197 29.1875 48.5938 29.1875H60.0938C60.4905 29.1875 60.8125 29.5095 60.8125 29.9062V41.4062C60.8125 41.803 60.4905 42.125 60.0938 42.125ZM49.3125 40.6875H59.375V30.625H49.3125V40.6875Z" fill="white"/>
<path d="M37.0938 42.125H25.5938C25.197 42.125 24.875 41.803 24.875 41.4062V29.9062C24.875 29.5095 25.197 29.1875 25.5938 29.1875H37.0938C37.4905 29.1875 37.8125 29.5095 37.8125 29.9062V41.4062C37.8125 41.803 37.4905 42.125 37.0938 42.125ZM26.3125 40.6875H36.375V30.625H26.3125V40.6875Z" fill="white"/>
<path d="M60.0941 53.6259C59.9101 53.6259 59.7261 53.5554 59.5852 53.416C59.3049 53.1357 59.3049 52.68 59.5852 52.3997L63.179 48.8059C63.4593 48.5256 63.915 48.5256 64.1953 48.8059C64.4756 49.0862 64.4756 49.5419 64.1953 49.8223L60.6015 53.416C60.4621 53.5554 60.2781 53.6259 60.0941 53.6259Z" fill="white"/>
<path d="M37.0941 53.6259C36.9101 53.6259 36.7261 53.5554 36.5852 53.416C36.3049 53.1357 36.3049 52.68 36.5852 52.3997L40.179 48.8059C40.4593 48.5256 40.915 48.5256 41.1953 48.8059C41.4756 49.0862 41.4756 49.5419 41.1953 49.8223L37.6015 53.416C37.4621 53.5554 37.2781 53.6259 37.0941 53.6259Z" fill="white"/>
<path d="M60.0941 30.6259C59.9101 30.6259 59.7261 30.5554 59.5852 30.416C59.3049 30.1357 59.3049 29.68 59.5852 29.3997L63.179 25.8059C63.4593 25.5256 63.915 25.5256 64.1953 25.8059C64.4756 26.0862 64.4756 26.5419 64.1953 26.8223L60.6015 30.416C60.4621 30.5554 60.2781 30.6259 60.0941 30.6259Z" fill="white"/>
<path d="M37.0941 30.6259C36.9101 30.6259 36.7261 30.5554 36.5852 30.416C36.3049 30.1357 36.3049 29.68 36.5852 29.3997L40.179 25.8059C40.4593 25.5256 40.915 25.5256 41.1953 25.8059C41.4756 26.0862 41.4756 26.5419 41.1953 26.8223L37.6015 30.416C37.4621 30.5554 37.2781 30.6259 37.0941 30.6259Z" fill="white"/>
<path d="M47.875 57.9375H39.9688C39.572 57.9375 39.25 57.6155 39.25 57.2188C39.25 56.822 39.572 56.5 39.9688 56.5H47.875C48.2718 56.5 48.5938 56.822 48.5938 57.2188C48.5938 57.6155 48.2718 57.9375 47.875 57.9375Z" fill="white"/>
<path d="M47.875 34.9375H39.9688C39.572 34.9375 39.25 34.6155 39.25 34.2188C39.25 33.822 39.572 33.5 39.9688 33.5H47.875C48.2718 33.5 48.5938 33.822 48.5938 34.2188C48.5938 34.6155 48.2718 34.9375 47.875 34.9375Z" fill="white"/>
<path d="M48.5938 65.1254C48.197 65.1254 47.875 64.8034 47.875 64.4066V52.9066C47.875 52.7154 47.9512 52.5329 48.0849 52.3977L52.3974 48.0852C52.6777 47.8049 53.1334 47.8049 53.4137 48.0852C53.694 48.3655 53.694 48.8212 53.4137 49.1015L49.3125 53.2042V63.6879H59.7962L63.6875 59.7965V49.3129H58.6562C58.2595 49.3129 57.9375 48.9909 57.9375 48.5941C57.9375 48.1974 58.2595 47.8754 58.6562 47.8754H64.4062C64.803 47.8754 65.125 48.1974 65.125 48.5941V60.0941C65.125 60.2853 65.0488 60.4679 64.9151 60.603L60.6026 64.9155C60.4675 65.0492 60.2849 65.1254 60.0938 65.1254H48.5938Z" fill="white"/>
<path d="M55.7812 50.75C55.3845 50.75 55.0625 50.428 55.0625 50.0312V42.125C55.0625 41.7282 55.3845 41.4062 55.7812 41.4062C56.178 41.4062 56.5 41.7282 56.5 42.125V50.0312C56.5 50.428 56.178 50.75 55.7812 50.75Z" fill="white"/>
<path d="M32.7812 50.75C32.3845 50.75 32.0625 50.428 32.0625 50.0312V42.125C32.0625 41.7282 32.3845 41.4062 32.7812 41.4062C33.178 41.4062 33.5 41.7282 33.5 42.125V50.0312C33.5 50.428 33.178 50.75 32.7812 50.75Z" fill="white"/>
<path d="M25.5938 42.125C25.197 42.125 24.875 41.803 24.875 41.4062V29.9062C24.875 29.7151 24.9512 29.5325 25.0849 29.3974L29.3974 25.0849C29.5325 24.9512 29.7151 24.875 29.9062 24.875H41.4062C41.803 24.875 42.125 25.197 42.125 25.5938V31.3438C42.125 31.7405 41.803 32.0625 41.4062 32.0625C41.0095 32.0625 40.6875 31.7405 40.6875 31.3438V26.3125H30.2038L26.3125 30.2038V40.6875H36.7962L40.8988 36.5849C41.1791 36.3046 41.6348 36.3046 41.9151 36.5849C42.1954 36.8652 42.1954 37.3209 41.9151 37.6012L37.6026 41.9137C37.4675 42.0488 37.2849 42.125 37.0938 42.125H25.5938Z" fill="white"/>
<path d="M37.0938 65.1254H25.5938C25.197 65.1254 24.875 64.8034 24.875 64.4066V52.9066C24.875 52.7154 24.9512 52.5329 25.0849 52.3977L29.3974 48.0852C29.6777 47.8049 30.1334 47.8049 30.4137 48.0852C30.694 48.3655 30.694 48.8212 30.4137 49.1015L26.3125 53.2042V63.6879H36.7962L40.8988 59.5852C41.1791 59.3049 41.6348 59.3049 41.9151 59.5852C42.1954 59.8655 42.1954 60.3212 41.9151 60.6015L37.6026 64.914C37.4675 65.0492 37.2849 65.1254 37.0938 65.1254Z" fill="white"/>
<path d="M40.6875 54.3438V49.3125H35.6562C35.2595 49.3125 34.9375 48.9905 34.9375 48.5938C34.9375 48.197 35.2595 47.875 35.6562 47.875H41.4062C41.803 47.875 42.125 48.197 42.125 48.5938V54.3438C42.125 54.7405 41.803 55.0625 41.4062 55.0625C41.0095 55.0625 40.6875 54.7405 40.6875 54.3438Z" fill="white"/>
</svg>
