<?xml version="1.0" encoding="utf-8"?>
<!-- Generator: Adobe Illustrator 26.5.0, SVG Export Plug-In . SVG Version: 6.00 Build 0)  -->
<svg version="1.1" id="Layer_1" xmlns="http://www.w3.org/2000/svg" xmlns:xlink="http://www.w3.org/1999/xlink" x="0px" y="0px"
	 viewBox="0 0 354 52" style="enable-background:new 0 0 354 52;" xml:space="preserve">
<path d="M96.6,0.8c-5.1,0.1-10,1.8-14,5c2.9,3.7,5,8,5.8,12.6c1.4-1.1,3.2-1.8,5-1.8c5.6,0,8.2,4.3,8.2,9.2v22.8
	c0,1.3,1,2.3,2.3,2.3h13c1.3,0,2.3-1,2.3-2.3v0V26.6C119.2,12.6,111.8,0.8,96.6,0.8"/>
<path d="M0.8,4.3C0.8,3.1,1.8,2,3,2c0.1,0,0.1,0,0.2,0h5.6c0.9,0,1.7,0.6,2.1,1.3l2.1,5c3.1-3.2,8.7-7.6,16.6-7.6
	c6.9,0,11.6,2.6,16,7.5c2.8-2.8,8.6-7.5,16.9-7.5c15.2,0,22.7,11.8,22.7,25.7v22.2c0,1.3-1,2.3-2.3,2.3h-13c-1.3,0-2.3-1-2.3-2.3
	c0,0,0,0,0,0V25.8c0-4.9-2.6-9.2-8.2-9.2c-4.6,0.1-8.2,3.8-8.2,8.3v23.8c0,1.3-1,2.3-2.3,2.3H37c-1.3,0-2.3-1-2.3-2.3V25.8
	c0-4.9-2.2-9.2-7.7-9.2c-4.6-0.2-8.4,3.4-8.6,8c0,0.2,0,0.4,0,0.6v23.5C18.3,50,17.3,51,16,51H3.2c-1.3,0-2.3-1-2.3-2.3V4.3z"/>
<path d="M139.5,1.5c0-0.3,0.2-0.5,0.5-0.5h7c5.5,0,10,4.5,10,10s-4.5,10-10,10h-7c-0.3,0-0.5-0.3-0.5-0.5L139.5,1.5z M146.7,16.7
	c3.1,0,5.6-2.5,5.6-5.6c0-0.1,0-0.2,0-0.3c0.1-3.1-2.3-5.7-5.3-5.8c-0.1,0-0.2,0-0.2,0H144v11.6L146.7,16.7z"/>
<path d="M163.7,1.5c0-0.3,0.3-0.5,0.6-0.5h11.8c0.3,0,0.5,0.2,0.6,0.5v3.1c0,0.3-0.2,0.6-0.6,0.6l0,0h-7.9v3.5h6.5
	c0.3,0,0.5,0.3,0.6,0.6v3.1c0,0.3-0.3,0.5-0.6,0.5h-6.5v3.9h7.9c0.3,0,0.6,0.2,0.6,0.5v0v3.1c0,0.3-0.3,0.5-0.6,0.5h-11.8
	c-0.3,0-0.5-0.2-0.6-0.5V1.5z"/>
<path d="M184.3,1.5c0-0.3,0.3-0.5,0.6-0.5h6.9c3.5,0,6.4,2.8,6.4,6.3c0,3.5-2.8,6.4-6.4,6.4h-3v6.7c0,0.3-0.3,0.5-0.6,0.5h-3.4
	c-0.3,0-0.5-0.2-0.6-0.5V1.5z M191.5,9.5c1.2,0,2.3-1,2.3-2.2c0,0,0,0,0,0c0-1.2-1.1-2.2-2.3-2.1c0,0,0,0,0,0h-2.7v4.4L191.5,9.5z"
	/>
<path d="M199.9,20.2l9-19.3c0.1-0.2,0.3-0.3,0.5-0.3h0.3c0.2,0,0.4,0.1,0.5,0.3l9,19.3c0.1,0.2,0,0.5-0.2,0.7
	c-0.1,0.1-0.2,0.1-0.3,0.1h-3.2c-0.5,0-0.7-0.2-1-0.7l-1-2.3h-7.8l-1,2.3c-0.2,0.4-0.6,0.7-1,0.7h-3.3c-0.3,0-0.5-0.2-0.6-0.4
	C199.8,20.4,199.9,20.3,199.9,20.2z M211.7,14.1l-2.2-4.7l0,0l-2.1,4.7L211.7,14.1z"/>
<path d="M224.6,1.5c0-0.3,0.2-0.5,0.5-0.5h8.6c3.4,0,6.2,2.8,6.2,6.2c-0.1,2.6-1.8,4.9-4.2,5.8l3.9,7.3c0.2,0.3,0.1,0.6-0.2,0.7
	c-0.1,0.1-0.2,0.1-0.3,0.1h-3.8c-0.2,0-0.4-0.1-0.5-0.3l-3.8-7.6h-2v7.3c0,0.3-0.3,0.5-0.6,0.5h-3.4c-0.3,0-0.5-0.2-0.5-0.5
	L224.6,1.5z M233.3,9.5c1.2-0.1,2.2-1.1,2.2-2.3c0-1.2-1-2.2-2.2-2.2h-4.2v4.5L233.3,9.5z"/>
<path d="M250.2,5.1h-4.1c-0.3,0-0.5-0.3-0.5-0.6V1.5c0-0.3,0.2-0.5,0.5-0.5h12.7c0.3,0,0.5,0.2,0.5,0.5c0,0,0,0,0,0v3.1
	c0,0.3-0.2,0.5-0.5,0.6h-4.1v15.3c0,0.3-0.2,0.5-0.5,0.5h-3.4c-0.3,0-0.5-0.2-0.6-0.5L250.2,5.1z"/>
<path d="M267.8,1.1c0-0.3,0.3-0.4,0.5-0.5h0.5c0.2,0,0.4,0.1,0.5,0.3l6.6,12.4h0.1l6.6-12.4c0.1-0.2,0.3-0.3,0.5-0.3h0.5
	c0.3,0,0.5,0.2,0.5,0.5l3.2,19.2c0.1,0.3-0.1,0.6-0.4,0.6c0,0-0.1,0-0.1,0h-3.4c-0.3,0-0.5-0.2-0.5-0.5l-1.3-8.8h-0.1l-4.8,9.3
	c-0.1,0.2-0.3,0.3-0.5,0.3h-0.5c-0.2,0-0.4-0.1-0.5-0.3l-4.8-9.3h0l-1.3,8.8c0,0.3-0.3,0.5-0.5,0.5h-3.4c-0.3,0-0.5-0.2-0.6-0.5
	c0,0,0-0.1,0-0.1L267.8,1.1z"/>
<path d="M294.8,1.5c0-0.3,0.2-0.5,0.5-0.5l0,0h11.9c0.3,0,0.5,0.2,0.5,0.5c0,0,0,0,0,0v3.1c0,0.3-0.2,0.5-0.5,0.6h-7.9v3.5h6.5
	c0.3,0,0.5,0.3,0.5,0.6v3.1c0,0.3-0.2,0.5-0.5,0.5l0,0h-6.5v3.9h7.9c0.3,0,0.5,0.3,0.5,0.5v3.1c0,0.3-0.2,0.5-0.5,0.5l0,0h-11.9
	c-0.3,0-0.5-0.2-0.5-0.5c0,0,0,0,0,0V1.5z"/>
<path d="M315.4,1.1c0-0.3,0.3-0.5,0.6-0.5c0,0,0,0,0,0h0.7l11.4,11l0,0V1.5c0-0.3,0.2-0.5,0.5-0.5l0,0h3.4c0.3,0,0.5,0.2,0.5,0.5
	v19.3c0,0.3-0.2,0.5-0.5,0.5h-0.5c-0.1,0-0.3-0.1-0.4-0.1L320,9.7l0,0v10.7c0,0.3-0.3,0.5-0.5,0.5H316c-0.3,0-0.5-0.2-0.5-0.5
	L315.4,1.1z"/>
<path d="M344,5.1h-4.1c-0.3,0-0.5-0.2-0.5-0.6V1.5c0-0.3,0.3-0.5,0.5-0.5h12.7c0.3,0,0.5,0.2,0.5,0.5c0,0,0,0,0,0v3.1
	c0,0.3-0.2,0.5-0.5,0.6h-4.1v15.3c0,0.3-0.2,0.6-0.5,0.6h-3.4c-0.3,0-0.5-0.2-0.5-0.5L344,5.1z"/>
<path d="M148.3,30.8c5.7,0,10.3,4.6,10.3,10.3s-4.6,10.3-10.3,10.3c-5.7,0-10.3-4.6-10.3-10.3c0,0,0,0,0,0
	C138,35.4,142.6,30.8,148.3,30.8C148.3,30.8,148.3,30.8,148.3,30.8z M148.3,46.8c3.2,0,5.7-2.5,5.8-5.7s-2.5-5.7-5.7-5.8
	c-3.2,0-5.7,2.5-5.8,5.7c0,0,0,0,0,0.1C142.6,44.2,145.2,46.8,148.3,46.8L148.3,46.8z"/>
<path d="M163.7,31.6c0-0.3,0.2-0.5,0.5-0.5h11.9c0.3,0,0.5,0.2,0.5,0.5v3.1c0,0.3-0.2,0.5-0.5,0.5h-7.9v4.1h6.5
	c0.3,0,0.5,0.2,0.6,0.5V43c0,0.3-0.3,0.5-0.6,0.5h-6.5v7c0,0.3-0.2,0.5-0.5,0.5h-3.4c-0.3,0-0.5-0.2-0.5-0.5L163.7,31.6z"/>
<path d="M193.8,31.6c0-0.3,0.3-0.5,0.6-0.5h8.6c3.4,0,6.2,2.8,6.2,6.2c-0.1,2.6-1.7,4.9-4.2,5.8l3.9,7.3c0.2,0.3,0.1,0.6-0.2,0.7
	c-0.1,0.1-0.2,0.1-0.3,0.1h-3.8c-0.2,0-0.4-0.1-0.4-0.3l-3.8-7.6h-2v7.3c0,0.3-0.3,0.5-0.6,0.5h-3.4c-0.3,0-0.5-0.2-0.6-0.5
	L193.8,31.6z M202.6,39.6c1.2-0.1,2.2-1.1,2.2-2.3c0-1.2-1-2.2-2.2-2.2h-4.2v4.5H202.6z"/>
<path d="M216.9,31.6c0-0.3,0.2-0.5,0.5-0.5h11.9c0.3,0,0.5,0.2,0.5,0.5v3.1c0,0.3-0.2,0.5-0.5,0.5h-7.9v3.5h6.5
	c0.3,0,0.5,0.3,0.6,0.5v3.1c0,0.3-0.3,0.5-0.6,0.5h-6.5v3.9h7.9c0.3,0,0.5,0.3,0.5,0.5v3.1c0,0.3-0.2,0.5-0.5,0.5h-11.9
	c-0.3,0-0.5-0.2-0.5-0.5V31.6z"/>
<path d="M235,31.8c-0.1-0.2,0-0.5,0.2-0.7c0.1,0,0.2-0.1,0.3-0.1h3.8c0.2,0,0.4,0.1,0.5,0.3l4.7,10.4h0.2l4.7-10.4
	c0.1-0.2,0.3-0.3,0.5-0.3h3.8c0.3,0,0.5,0.2,0.6,0.4c0,0.1,0,0.2-0.1,0.3l-9,19.3c-0.1,0.2-0.3,0.3-0.5,0.3h-0.3
	c-0.2,0-0.4-0.1-0.5-0.3L235,31.8z"/>
<path d="M259.2,31.6c0-0.3,0.2-0.5,0.5-0.5l0,0h11.9c0.3,0,0.5,0.2,0.5,0.5c0,0,0,0,0,0v3.1c0,0.3-0.2,0.5-0.5,0.5h-7.9v3.5h6.5
	c0.3,0,0.5,0.3,0.5,0.5v3.1c0,0.3-0.2,0.5-0.5,0.5l0,0h-6.5v3.9h7.9c0.3,0,0.5,0.3,0.5,0.5v3.1c0,0.3-0.2,0.5-0.5,0.5l0,0h-11.9
	c-0.3,0-0.5-0.2-0.5-0.5c0,0,0,0,0,0V31.6z"/>
<path d="M279.8,31.3c0-0.3,0.2-0.5,0.5-0.5h0.7l11.4,11l0,0V31.6c0-0.3,0.2-0.5,0.5-0.5l0,0h3.4c0.3,0,0.5,0.2,0.5,0.5v19.3
	c0,0.3-0.2,0.5-0.5,0.5H296c-0.1,0-0.3-0.1-0.4-0.2l-11.3-11.4l0,0v10.7c0,0.3-0.2,0.5-0.5,0.5l0,0h-3.4c-0.3,0-0.5-0.2-0.5-0.5
	L279.8,31.3z"/>
<path d="M305.4,31.6c0-0.3,0.3-0.5,0.5-0.5h3.5c0.3,0,0.5,0.2,0.5,0.5c0,0,0,0,0,0v11.6c0,2,1.6,3.6,3.5,3.6c2,0,3.6-1.6,3.6-3.6
	V31.6c0-0.3,0.2-0.5,0.5-0.5l0,0h3.5c0.3,0,0.5,0.2,0.5,0.5v11.8c-0.2,4.5-3.9,8-8.4,7.9c-4.3-0.1-7.7-3.6-7.9-7.9V31.6z"/>
<path d="M329.5,31.6c0-0.3,0.2-0.5,0.5-0.5l0,0h11.9c0.3,0,0.5,0.2,0.5,0.5c0,0,0,0,0,0v3.1c0,0.3-0.2,0.5-0.5,0.5H334v3.5h6.5
	c0.3,0,0.5,0.3,0.5,0.5v3.1c0,0.3-0.3,0.5-0.5,0.5H334v3.9h7.9c0.3,0,0.5,0.3,0.5,0.5v3.1c0,0.3-0.2,0.5-0.5,0.5l0,0h-11.9
	c-0.3,0-0.5-0.2-0.5-0.5c0,0,0,0,0,0V31.6z"/>
</svg>
